<?xml version="1.0" encoding="UTF-8" standalone="no"?>
<!-- Created with Inkscape (http://www.inkscape.org/) -->

<svg
   width="210mm"
   height="210mm"
   viewBox="0 0 210 210"
   version="1.1"
   id="svg1"
   inkscape:version="1.4 (86a8ad7, 2024-10-11)"
   sodipodi:docname="logo.svg"
   inkscape:export-filename="logo.png"
   inkscape:export-xdpi="96"
   inkscape:export-ydpi="96"
   xmlns:inkscape="http://www.inkscape.org/namespaces/inkscape"
   xmlns:sodipodi="http://sodipodi.sourceforge.net/DTD/sodipodi-0.dtd"
   xmlns="http://www.w3.org/2000/svg"
   xmlns:svg="http://www.w3.org/2000/svg">
  <sodipodi:namedview
     id="namedview1"
     pagecolor="#ffffff"
     bordercolor="#000000"
     borderopacity="0.25"
     inkscape:showpageshadow="2"
     inkscape:pageopacity="0.0"
     inkscape:pagecheckerboard="0"
     inkscape:deskcolor="#d1d1d1"
     inkscape:document-units="mm"
     inkscape:zoom="0.58621115"
     inkscape:cx="313.02714"
     inkscape:cy="386.37955"
     inkscape:window-width="1366"
     inkscape:window-height="697"
     inkscape:window-x="-8"
     inkscape:window-y="-8"
     inkscape:window-maximized="1"
     inkscape:current-layer="svg1"
     inkscape:export-bgcolor="#ffffff00" />
  <defs
     id="defs1">
    <inkscape:path-effect
       effect="spiro"
       id="path-effect9"
       is_visible="true"
       lpeversion="1" />
    <inkscape:path-effect
       effect="spiro"
       id="path-effect8"
       is_visible="true"
       lpeversion="1" />
    <inkscape:path-effect
       effect="spiro"
       id="path-effect6"
       is_visible="true"
       lpeversion="1" />
    <inkscape:path-effect
       effect="spiro"
       id="path-effect5"
       is_visible="true"
       lpeversion="1" />
    <inkscape:path-effect
       effect="spiro"
       id="path-effect4"
       is_visible="true"
       lpeversion="1" />
  </defs>
  <g
     inkscape:label="Capa 1"
     inkscape:groupmode="layer"
     id="layer1">
    <g
       inkscape:groupmode="layer"
       id="layer2"
       inkscape:label="background">
      <rect
         style="fill:#ffffff;fill-opacity:1;stroke-width:0.264583"
         id="rect2"
         width="188.662"
         height="188.66211"
         x="10.832274"
         y="11.283618"
         rx="45"
         ry="45"
         inkscape:label="white background" />
    </g>
    <ellipse
       style="fill:#633600;stroke-width:0.366431;fill-opacity:1"
       id="path1"
       cx="103.92315"
       cy="104.75012"
       rx="88.88517"
       ry="91.860405"
       inkscape:label="coffee circle" />
    <ellipse
       style="fill:#ffffff;fill-opacity:1;stroke-width:0.321969"
       id="path1-8"
       cx="103.76012"
       cy="104.53457"
       rx="78.099274"
       ry="80.713936"
       inkscape:label="white circle" />
    <g
       id="g1"
       transform="matrix(1.0274113,0,0,1.0274113,-1.3730318,2.7980568)">
      <path
         style="opacity:1;fill:#ffcb88;fill-opacity:1;stroke-width:0.264583"
         d="m 98.844501,104.71198 c -0.303677,0.64338 -0.841375,1.16736 -1.478431,1.48409 -0.637055,0.31673 -1.368568,0.42954 -2.075847,0.35263 -0.707279,-0.0769 -1.389576,-0.33976 -1.984931,-0.72926 -0.595356,-0.38951 -1.105001,-0.90353 -1.517868,-1.48293 -0.825735,-1.15879 -1.256738,-2.55624 -1.498219,-3.9585 -0.241482,-1.402255 -0.305891,-2.828362 -0.471597,-4.241578 -0.358603,-3.058342 -1.190497,-6.047915 -1.515007,-9.110062 -0.32451,-3.062146 -0.0925,-6.317328 1.515007,-8.943726 1.163985,-1.901756 2.967564,-3.336208 4.894921,-4.457295 1.927356,-1.121086 4.001245,-1.963825 6.002091,-2.947778 2.00084,-0.983953 3.96052,-2.133561 5.49436,-3.751852 1.53385,-1.618291 2.61296,-3.764995 2.56511,-5.994176 -0.0256,-1.194297 -0.37284,-2.373018 -0.94567,-3.421283 -0.57284,-1.048265 -1.36729,-1.968138 -2.28233,-2.736059 -1.83008,-1.535842 -4.10441,-2.449043 -6.405817,-3.090547 -2.301409,-0.641503 -4.666044,-1.035369 -6.968467,-1.673223 -2.302423,-0.637854 -4.578935,-1.543455 -6.416301,-3.070575 -1.432408,-1.190541 -2.576563,-2.772009 -3.056744,-4.571622 -0.480181,-1.799613 -0.248687,-3.81868 0.800021,-5.357963 0.554782,-0.814303 1.318276,-1.476576 2.173285,-1.966302 0.855009,-0.489726 1.800306,-0.810649 2.766146,-1.005647 1.931681,-0.389996 3.924431,-0.281562 5.89284,-0.187465 8.324907,0.397961 16.797707,0.531424 24.732117,3.082439 3.9672,1.275508 7.7689,3.163027 10.97792,5.821569 3.20901,2.658543 5.80919,6.112928 7.16772,10.052473 1.52984,4.436294 1.42325,9.39218 -0.15626,13.811031 -1.57951,4.418851 -4.6002,8.286096 -8.41929,11.012931 -4.61342,3.293986 -10.20515,4.887223 -15.72911,6.159956 -5.52396,1.272733 -11.16639,2.303417 -16.316373,4.672318 -0.907284,0.417335 -1.806411,0.8819 -2.556763,1.540918 -0.750352,0.659019 -1.34727,1.535105 -1.50534,2.521182 -0.09646,0.601729 -0.02642,1.22429 0.161167,1.80411 0.187592,0.579821 0.490264,1.118356 0.854139,1.607209 0.72775,0.977707 1.688644,1.751438 2.611633,2.547441 0.922989,0.796003 1.834487,1.645386 2.417588,2.715676 0.291551,0.53514 0.496205,1.12211 0.557875,1.72839 0.06167,0.60628 -0.02345,1.23237 -0.283575,1.78348 z"
         id="path8"
         inkscape:path-effect="#path-effect8"
         inkscape:original-d="m 98.844501,104.71198 c 2.106279,4.06211 -6.017929,-5.717029 -9.026893,-8.575548 -3.008966,-2.858516 0,-12.035858 0,-18.053788 0,-6.017932 12.637652,-11.434069 18.956482,-17.151101 6.31882,-5.717034 -15.345726,-9.327792 -23.018585,-13.991687 -7.672861,-4.663898 -1.504484,-6.619725 -2.256723,-9.929585 -0.752243,-3.309864 7.221516,-2.106277 10.832271,-3.159414 3.610758,-1.053139 28.886067,12.336756 42.877757,18.956481 13.99168,6.619721 -6.01793,16.850203 -8.57555,24.823962 -2.55762,7.973755 -21.36366,7.071066 -32.045483,10.832274 -10.681824,3.761205 -2.708068,2.858516 -4.062103,4.0621 -1.354031,1.203587 4.212553,8.124206 6.318827,12.186306 z"
         transform="matrix(1.3944214,0.32075369,-0.30664502,1.1229331,-25.350322,-38.938499)"
         inkscape:label="steam" />
      <path
         id="path11"
         style="fill:#633600;stroke-width:0.252019"
         d="m 60.896821,115.38193 a 41.324917,42.838415 0 0 0 -0.26353,3.8211 41.324917,42.838415 0 0 0 20.649845,36.98107 v 6.06817 H 121.6607 v -5.5172 a 41.324917,42.838415 0 0 0 12.51367,-10.84514 15.437177,14.950093 0 0 0 5.86131,0.73137 15.437177,14.950093 0 0 0 14.38693,-14.91527 l -0.56872,-4.0206 a 15.437177,14.950093 0 0 0 -10.65398,-10.32556 41.324917,42.838415 0 0 0 -0.089,-1.97794 z m 82.126619,7.66867 a 9.4596955,9.6735899 0 0 1 5.88002,6.45297 l 0.34873,2.60148 a 9.4596955,9.6735899 0 0 1 -8.81629,9.65103 9.4596955,9.6735899 0 0 1 -3.22695,-0.3696 41.324917,42.838415 0 0 0 5.81449,-18.33588 z"
         inkscape:label="cup" />
    </g>
  </g>
</svg>
