<?xml version="1.0" encoding="UTF-8" standalone="no"?>
<!-- Created with Inkscape (http://www.inkscape.org/) -->

<svg
   width="210mm"
   height="173mm"
   viewBox="0 0 210 173"
   version="1.1"
   id="svg1"
   inkscape:version="1.4 (86a8ad7, 2024-10-11)"
   sodipodi:docname="contact.svg"
   xmlns:inkscape="http://www.inkscape.org/namespaces/inkscape"
   xmlns:sodipodi="http://sodipodi.sourceforge.net/DTD/sodipodi-0.dtd"
   xmlns:xlink="http://www.w3.org/1999/xlink"
   xmlns="http://www.w3.org/2000/svg"
   xmlns:svg="http://www.w3.org/2000/svg">
  <sodipodi:namedview
     id="namedview1"
     pagecolor="#ffffff"
     bordercolor="#000000"
     borderopacity="0.25"
     inkscape:showpageshadow="2"
     inkscape:pageopacity="0.0"
     inkscape:pagecheckerboard="0"
     inkscape:deskcolor="#d1d1d1"
     inkscape:document-units="mm"
     inkscape:zoom="0.69670057"
     inkscape:cx="366.0109"
     inkscape:cy="381.08193"
     inkscape:window-width="1366"
     inkscape:window-height="697"
     inkscape:window-x="-8"
     inkscape:window-y="-8"
     inkscape:window-maximized="1"
     inkscape:current-layer="layer1" />
  <defs
     id="defs1">
    <linearGradient
       id="linearGradient22"
       inkscape:collect="always">
      <stop
         style="stop-color:#ffcb88;stop-opacity:1;"
         offset="0.74885142"
         id="stop22" />
      <stop
         style="stop-color:#ffcb88;stop-opacity:0;"
         offset="1"
         id="stop23" />
    </linearGradient>
    <linearGradient
       id="linearGradient18"
       inkscape:collect="always">
      <stop
         style="stop-color:#ffcb88;stop-opacity:1;"
         offset="0.83154672"
         id="stop19" />
      <stop
         style="stop-color:#ffcb88;stop-opacity:0;"
         offset="1"
         id="stop20" />
    </linearGradient>
    <linearGradient
       id="linearGradient16"
       inkscape:collect="always">
      <stop
         style="stop-color:#633600;stop-opacity:1;"
         offset="0"
         id="stop16" />
      <stop
         style="stop-color:#1e1100;stop-opacity:1;"
         offset="0.74193543"
         id="stop17" />
    </linearGradient>
    <linearGradient
       id="linearGradient14"
       inkscape:collect="always">
      <stop
         style="stop-color:#150b00;stop-opacity:1;"
         offset="0.28462997"
         id="stop15" />
      <stop
         style="stop-color:#874a00;stop-opacity:1;"
         offset="1"
         id="stop14" />
    </linearGradient>
    <linearGradient
       id="linearGradient6"
       inkscape:collect="always">
      <stop
         style="stop-color:#fff6d9;stop-opacity:1;"
         offset="0"
         id="stop6" />
      <stop
         style="stop-color:#ffe388;stop-opacity:1;"
         offset="1"
         id="stop7" />
    </linearGradient>
    <linearGradient
       id="linearGradient3"
       inkscape:collect="always">
      <stop
         style="stop-color:#574a32;stop-opacity:1;"
         offset="0.20542695"
         id="stop3" />
      <stop
         style="stop-color:#937d56;stop-opacity:1;"
         offset="0.53629982"
         id="stop5" />
      <stop
         style="stop-color:#4c3f29;stop-opacity:1;"
         offset="1"
         id="stop4" />
    </linearGradient>
    <linearGradient
       id="linearGradient1"
       inkscape:collect="always">
      <stop
         style="stop-color:#2a1600;stop-opacity:1;"
         offset="0"
         id="stop1" />
      <stop
         style="stop-color:#512900;stop-opacity:1;"
         offset="0.38591114"
         id="stop18" />
      <stop
         style="stop-color:#f47d00;stop-opacity:0.97826087;"
         offset="1"
         id="stop2" />
    </linearGradient>
    <inkscape:path-effect
       effect="spiro"
       id="path-effect27"
       is_visible="true"
       lpeversion="1" />
    <inkscape:path-effect
       effect="spiro"
       id="path-effect24"
       is_visible="true"
       lpeversion="1" />
    <inkscape:path-effect
       effect="spiro"
       id="path-effect8"
       is_visible="true"
       lpeversion="1" />
    <linearGradient
       inkscape:collect="always"
       xlink:href="#linearGradient1"
       id="linearGradient2"
       x1="103.5429"
       y1="171.61693"
       x2="103.5429"
       y2="-27.008524"
       gradientUnits="userSpaceOnUse"
       gradientTransform="matrix(0.86306427,-0.00853528,0.00853528,0.86306427,13.992306,18.999635)" />
    <linearGradient
       inkscape:collect="always"
       xlink:href="#linearGradient6"
       id="linearGradient7"
       x1="104.62558"
       y1="-20.69725"
       x2="104.62558"
       y2="190.07298"
       gradientUnits="userSpaceOnUse"
       gradientTransform="translate(0.37976624,-0.37976621)" />
    <linearGradient
       inkscape:collect="always"
       xlink:href="#linearGradient14"
       id="linearGradient15"
       x1="107.52795"
       y1="185.71175"
       x2="107.52795"
       y2="91.922432"
       gradientUnits="userSpaceOnUse" />
    <linearGradient
       inkscape:collect="always"
       xlink:href="#linearGradient16"
       id="linearGradient17"
       x1="107.52795"
       y1="91.922432"
       x2="107.52795"
       y2="185.71175"
       gradientUnits="userSpaceOnUse" />
    <linearGradient
       inkscape:collect="always"
       xlink:href="#linearGradient18"
       id="linearGradient20"
       x1="110.37923"
       y1="98.086426"
       x2="110.37923"
       y2="42.247345"
       gradientUnits="userSpaceOnUse" />
    <linearGradient
       inkscape:collect="always"
       xlink:href="#linearGradient22"
       id="linearGradient23"
       x1="110.37923"
       y1="98.086426"
       x2="110.37923"
       y2="42.247345"
       gradientUnits="userSpaceOnUse" />
    <linearGradient
       inkscape:collect="always"
       xlink:href="#linearGradient3"
       id="linearGradient4"
       x1="-0.75953233"
       y1="173.17342"
       x2="210.39046"
       y2="173.17342"
       gradientUnits="userSpaceOnUse" />
  </defs>
  <g
     inkscape:label="Capa 1"
     inkscape:groupmode="layer"
     id="layer1">
    <rect
       style="fill:url(#linearGradient7);fill-opacity:1;stroke-width:0.265181"
       id="rect6"
       width="210.77023"
       height="168.6162"
       x="-0.37976632"
       y="4.1435296e-08"
       inkscape:label="rect6" />
    <g
       id="g8"
       transform="matrix(2.4336135,0,0,2.4336135,-97.790186,-142.01661)" />
    <path
       style="opacity:0.288162;fill:#ffe8a3;fill-opacity:1;stroke-width:0.264583"
       d="M 78.991372,11.392986 102.53688,54.686334"
       id="path24"
       inkscape:path-effect="#path-effect24"
       inkscape:original-d="m 78.991372,11.392986 c 7.848499,13.924761 15.697001,28.609055 23.545508,43.293348" />
    <g
       id="g2"
       transform="matrix(0.5653736,0,0,0.64635643,114.91562,63.720274)">
      <path
         style="opacity:1;fill:url(#linearGradient20);fill-opacity:1;stroke-width:0.264583"
         d="m 98.844501,104.71198 c -0.303677,0.64338 -0.841375,1.16736 -1.478431,1.48409 -0.637055,0.31673 -1.368568,0.42954 -2.075847,0.35263 -0.707279,-0.0769 -1.389576,-0.33976 -1.984931,-0.72926 -0.595356,-0.38951 -1.105001,-0.90353 -1.517868,-1.48293 -0.825735,-1.15879 -1.256738,-2.55624 -1.498219,-3.9585 -0.241482,-1.402255 -0.305891,-2.828362 -0.471597,-4.241578 -0.358603,-3.058342 -1.190497,-6.047915 -1.515007,-9.110062 -0.32451,-3.062146 -0.0925,-6.317328 1.515007,-8.943726 1.163985,-1.901756 2.967564,-3.336208 4.894921,-4.457295 1.927356,-1.121086 4.001245,-1.963825 6.002091,-2.947778 2.00084,-0.983953 3.96052,-2.133561 5.49436,-3.751852 1.53385,-1.618291 2.61296,-3.764995 2.56511,-5.994176 -0.0256,-1.194297 -0.37284,-2.373018 -0.94567,-3.421283 -0.57284,-1.048265 -1.36729,-1.968138 -2.28233,-2.736059 -1.83008,-1.535842 -4.10441,-2.449043 -6.405817,-3.090547 -2.301409,-0.641503 -4.666044,-1.035369 -6.968467,-1.673223 -2.302423,-0.637854 -4.578935,-1.543455 -6.416301,-3.070575 -1.432408,-1.190541 -2.576563,-2.772009 -3.056744,-4.571622 -0.480181,-1.799613 -0.248687,-3.81868 0.800021,-5.357963 0.554782,-0.814303 1.318276,-1.476576 2.173285,-1.966302 0.855009,-0.489726 1.800306,-0.810649 2.766146,-1.005647 1.931681,-0.389996 3.924431,-0.281562 5.89284,-0.187465 8.324907,0.397961 16.797707,0.531424 24.732117,3.082439 3.9672,1.275508 7.7689,3.163027 10.97792,5.821569 3.20901,2.658543 5.80919,6.112928 7.16772,10.052473 1.52984,4.436294 1.42325,9.39218 -0.15626,13.811031 -1.57951,4.418851 -4.6002,8.286096 -8.41929,11.012931 -4.61342,3.293986 -10.20515,4.887223 -15.72911,6.159956 -5.52396,1.272733 -11.16639,2.303417 -16.316373,4.672318 -0.907284,0.417335 -1.806411,0.8819 -2.556763,1.540918 -0.750352,0.659019 -1.34727,1.535105 -1.50534,2.521182 -0.09646,0.601729 -0.02642,1.22429 0.161167,1.80411 0.187592,0.579821 0.490264,1.118356 0.854139,1.607209 0.72775,0.977707 1.688644,1.751438 2.611633,2.547441 0.922989,0.796003 1.834487,1.645386 2.417588,2.715676 0.291551,0.53514 0.496205,1.12211 0.557875,1.72839 0.06167,0.60628 -0.02345,1.23237 -0.283575,1.78348 z"
         id="path8"
         inkscape:path-effect="#path-effect8"
         inkscape:original-d="m 98.844501,104.71198 c 2.106279,4.06211 -6.017929,-5.717029 -9.026893,-8.575548 -3.008966,-2.858516 0,-12.035858 0,-18.053788 0,-6.017932 12.637652,-11.434069 18.956482,-17.151101 6.31882,-5.717034 -15.345726,-9.327792 -23.018585,-13.991687 -7.672861,-4.663898 -1.504484,-6.619725 -2.256723,-9.929585 -0.752243,-3.309864 7.221516,-2.106277 10.832271,-3.159414 3.610758,-1.053139 28.886067,12.336756 42.877757,18.956481 13.99168,6.619721 -6.01793,16.850203 -8.57555,24.823962 -2.55762,7.973755 -21.36366,7.071066 -32.045483,10.832274 -10.681824,3.761205 -2.708068,2.858516 -4.062103,4.0621 -1.354031,1.203587 4.212553,8.124206 6.318827,12.186306 z"
         transform="matrix(1.3944214,0.32075369,-0.30664502,1.1229331,-25.350322,-38.938499)"
         inkscape:label="steam" />
      <path
         id="path11"
         style="fill:url(#linearGradient17);stroke-width:0.252019"
         d="m 60.896821,115.38193 a 41.324917,42.838415 0 0 0 -0.26353,3.8211 41.324917,42.838415 0 0 0 20.649845,36.98107 v 6.06817 H 121.6607 v -5.5172 a 41.324917,42.838415 0 0 0 12.51367,-10.84514 15.437177,14.950093 0 0 0 5.86131,0.73137 15.437177,14.950093 0 0 0 14.38693,-14.91527 l -0.56872,-4.0206 a 15.437177,14.950093 0 0 0 -10.65398,-10.32556 41.324917,42.838415 0 0 0 -0.089,-1.97794 z m 82.126619,7.66867 a 9.4596955,9.6735899 0 0 1 5.88002,6.45297 l 0.34873,2.60148 a 9.4596955,9.6735899 0 0 1 -8.81629,9.65103 9.4596955,9.6735899 0 0 1 -3.22695,-0.3696 41.324917,42.838415 0 0 0 5.81449,-18.33588 z"
         inkscape:label="cup" />
    </g>
    <g
       id="g26"
       transform="matrix(-0.55623855,0,0,0.64635643,91.77877,63.720274)">
      <path
         style="opacity:1;fill:url(#linearGradient23);fill-opacity:1;stroke-width:0.264583"
         d="m 98.844501,104.71198 c -0.303677,0.64338 -0.841375,1.16736 -1.478431,1.48409 -0.637055,0.31673 -1.368568,0.42954 -2.075847,0.35263 -0.707279,-0.0769 -1.389576,-0.33976 -1.984931,-0.72926 -0.595356,-0.38951 -1.105001,-0.90353 -1.517868,-1.48293 -0.825735,-1.15879 -1.256738,-2.55624 -1.498219,-3.9585 -0.241482,-1.402255 -0.305891,-2.828362 -0.471597,-4.241578 -0.358603,-3.058342 -1.190497,-6.047915 -1.515007,-9.110062 -0.32451,-3.062146 -0.0925,-6.317328 1.515007,-8.943726 1.163985,-1.901756 2.967564,-3.336208 4.894921,-4.457295 1.927356,-1.121086 4.001245,-1.963825 6.002091,-2.947778 2.00084,-0.983953 3.96052,-2.133561 5.49436,-3.751852 1.53385,-1.618291 2.61296,-3.764995 2.56511,-5.994176 -0.0256,-1.194297 -0.37284,-2.373018 -0.94567,-3.421283 -0.57284,-1.048265 -1.36729,-1.968138 -2.28233,-2.736059 -1.83008,-1.535842 -4.10441,-2.449043 -6.405817,-3.090547 -2.301409,-0.641503 -4.666044,-1.035369 -6.968467,-1.673223 -2.302423,-0.637854 -4.578935,-1.543455 -6.416301,-3.070575 -1.432408,-1.190541 -2.576563,-2.772009 -3.056744,-4.571622 -0.480181,-1.799613 -0.248687,-3.81868 0.800021,-5.357963 0.554782,-0.814303 1.318276,-1.476576 2.173285,-1.966302 0.855009,-0.489726 1.800306,-0.810649 2.766146,-1.005647 1.931681,-0.389996 3.924431,-0.281562 5.89284,-0.187465 8.324907,0.397961 16.797707,0.531424 24.732117,3.082439 3.9672,1.275508 7.7689,3.163027 10.97792,5.821569 3.20901,2.658543 5.80919,6.112928 7.16772,10.052473 1.52984,4.436294 1.42325,9.39218 -0.15626,13.811031 -1.57951,4.418851 -4.6002,8.286096 -8.41929,11.012931 -4.61342,3.293986 -10.20515,4.887223 -15.72911,6.159956 -5.52396,1.272733 -11.16639,2.303417 -16.316373,4.672318 -0.907284,0.417335 -1.806411,0.8819 -2.556763,1.540918 -0.750352,0.659019 -1.34727,1.535105 -1.50534,2.521182 -0.09646,0.601729 -0.02642,1.22429 0.161167,1.80411 0.187592,0.579821 0.490264,1.118356 0.854139,1.607209 0.72775,0.977707 1.688644,1.751438 2.611633,2.547441 0.922989,0.796003 1.834487,1.645386 2.417588,2.715676 0.291551,0.53514 0.496205,1.12211 0.557875,1.72839 0.06167,0.60628 -0.02345,1.23237 -0.283575,1.78348 z"
         id="path25"
         inkscape:path-effect="#path-effect27"
         inkscape:original-d="m 98.844501,104.71198 c 2.106279,4.06211 -6.017929,-5.717029 -9.026893,-8.575548 -3.008966,-2.858516 0,-12.035858 0,-18.053788 0,-6.017932 12.637652,-11.434069 18.956482,-17.151101 6.31882,-5.717034 -15.345726,-9.327792 -23.018585,-13.991687 -7.672861,-4.663898 -1.504484,-6.619725 -2.256723,-9.929585 -0.752243,-3.309864 7.221516,-2.106277 10.832271,-3.159414 3.610758,-1.053139 28.886067,12.336756 42.877757,18.956481 13.99168,6.619721 -6.01793,16.850203 -8.57555,24.823962 -2.55762,7.973755 -21.36366,7.071066 -32.045483,10.832274 -10.681824,3.761205 -2.708068,2.858516 -4.062103,4.0621 -1.354031,1.203587 4.212553,8.124206 6.318827,12.186306 z"
         transform="matrix(1.3944214,0.32075369,-0.30664502,1.1229331,-25.350322,-38.938499)"
         inkscape:label="steam" />
      <path
         id="path26"
         style="fill:url(#linearGradient15);stroke-width:0.252019"
         d="m 60.896821,115.38193 a 41.324917,42.838415 0 0 0 -0.26353,3.8211 41.324917,42.838415 0 0 0 20.649845,36.98107 v 6.06817 H 121.6607 v -5.5172 a 41.324917,42.838415 0 0 0 12.51367,-10.84514 15.437177,14.950093 0 0 0 5.86131,0.73137 15.437177,14.950093 0 0 0 14.38693,-14.91527 l -0.56872,-4.0206 a 15.437177,14.950093 0 0 0 -10.65398,-10.32556 41.324917,42.838415 0 0 0 -0.089,-1.97794 z m 82.126619,7.66867 a 9.4596955,9.6735899 0 0 1 5.88002,6.45297 l 0.34873,2.60148 a 9.4596955,9.6735899 0 0 1 -8.81629,9.65103 9.4596955,9.6735899 0 0 1 -3.22695,-0.3696 41.324917,42.838415 0 0 0 5.81449,-18.33588 z"
         inkscape:label="cup" />
    </g>
    <path
       id="path2"
       style="fill:url(#linearGradient2);stroke-width:0.254668"
       d="m 31.675731,28.430244 a 10.481621,6.9465412 66.076267 0 0 -2.120302,0.65123 c -0.01109,0.59296 0.05985,1.105785 0.272899,1.705651 0.302258,0.690115 0.876314,1.11268 1.510553,1.468161 0.744759,0.43092 1.656302,0.78202 2.065353,1.595592 0.179566,0.357143 0.256513,0.803857 0.344917,1.185297 0.216545,0.737377 0.09041,1.644606 0.375665,2.35497 0.182543,0.454599 0.293817,0.51131 0.619198,0.865895 0.641034,0.545684 1.322938,0.880818 1.813789,1.595849 0.254891,0.371308 0.366725,0.667763 0.54809,1.072669 0.388237,0.955839 0.335942,1.995504 0.328585,3.006658 0.0048,0.160153 -0.0071,0.321494 0.0145,0.480248 0.111113,0.813741 0.774298,1.909812 1.204309,2.614845 0.126083,0.208945 0.284735,0.39456 0.420275,0.596666 a 10.481621,6.9465412 66.076267 0 0 0.279265,-0.176273 l 1.321301,-1.476538 A 10.481621,6.9465412 66.076267 0 0 38.634136,32.414636 10.481621,6.9465412 66.076267 0 0 31.675692,28.430245 Z m -2.788393,1.155621 a 10.481621,6.9465412 66.076267 0 0 -0.598577,0.452413 10.481621,6.9465412 66.076267 0 0 0.632219,13.232792 10.481621,6.9465412 66.076267 0 0 9.790482,4.580846 c -0.267751,-0.372645 -0.545952,-0.737975 -0.77754,-1.13597 -0.335387,-0.569514 -0.237874,-0.385234 -0.550939,-0.999933 -0.26843,-0.527058 -0.568718,-1.058285 -0.644852,-1.655586 -0.02029,-0.159093 -0.0063,-0.320393 -0.0097,-0.480741 0.0093,-0.999901 0.04513,-2.02704 -0.334488,-2.972254 -0.188504,-0.418302 -0.278083,-0.669225 -0.550102,-1.050346 -0.485807,-0.680654 -1.215145,-1.051078 -1.824959,-1.597971 -0.318787,-0.369727 -0.432422,-0.435276 -0.607505,-0.901247 -0.276136,-0.734919 -0.118509,-1.598027 -0.356858,-2.347572 -0.113405,-0.441704 -0.165362,-0.769226 -0.384907,-1.169737 -0.07193,-0.131216 -0.169852,-0.247088 -0.268065,-0.359983 -0.0988,-0.113581 -0.296599,-0.169074 -0.321615,-0.317524 -0.01687,-0.100104 0.361818,0.172636 0.28562,0.105563 -0.12738,-0.112127 -0.296863,-0.164129 -0.445357,-0.246273 -0.66428,-0.364007 -1.790488,-0.874652 -2.332288,-1.48055 -0.247463,-0.276737 -0.312634,-0.456067 -0.482804,-0.78517 -0.09889,-0.292329 -0.164261,-0.580392 -0.217805,-0.870756 z m 133.605082,4.425108 a 5.3308141,9.2709807 24.438674 0 0 -7.93717,7.64028 5.3308141,9.2709807 24.438674 0 0 1.83239,9.610645 5.3308141,9.2709807 24.438674 0 0 1.43169,0.125002 c 0.14921,-0.135655 0.28376,-0.296346 0.40235,-0.541012 0.12431,-0.267568 0.17356,-0.34825 0.25728,-0.639052 0.13829,-0.480418 0.19499,-0.9925 0.61896,-1.322398 0.67019,-0.555042 1.08821,-0.92559 1.21778,-1.84082 0.0136,-0.180173 0.0359,-0.359952 0.0402,-0.540559 0.0204,-0.823407 -0.13018,-1.640564 -0.1323,-2.463089 0.0296,-0.295962 0.0268,-0.44219 0.13637,-0.732857 0.29385,-0.780015 0.87264,-1.423448 1.29387,-2.130617 0.33078,-0.503659 0.98025,-1.365437 0.99138,-2.003626 0.002,-0.140051 -0.10156,-0.525679 -0.13269,-0.652583 -0.26386,-1.119867 -0.4493,-2.267028 -0.33893,-3.420938 0.10058,-0.4761 0.15624,-0.736482 0.31887,-1.088373 z m 0.73311,0.207293 c -0.24622,0.452428 -0.26938,0.698122 -0.37672,1.234816 -0.10142,1.153924 0.0993,2.295831 0.39054,3.407484 0.0403,0.14923 0.14918,0.500812 0.14215,0.664534 -0.0273,0.640762 -0.7329,1.522988 -1.07589,2.025874 -0.4207,0.700033 -0.98677,1.354186 -1.25185,2.140011 -0.0947,0.280719 -0.0871,0.434263 -0.10437,0.718272 0.034,1.001594 0.13948,1.98646 0.0652,2.988739 -0.11953,0.952532 -0.53586,1.32745 -1.22289,1.911799 -0.40854,0.321393 -0.46923,0.806207 -0.60029,1.272701 -0.0647,0.230233 -0.12388,0.34478 -0.19662,0.50419 a 5.3308141,9.2709807 24.438674 0 0 5.74271,-6.190348 l 0.85234,-2.351055 a 5.3308141,9.2709807 24.438674 0 0 -2.36433,-8.327016 z M 56.712999,43.484639 a 5.5281679,9.3516852 32.794993 0 0 -5.834271,3.201419 l -1.566218,1.968717 a 5.5281679,9.3516852 32.794993 0 0 -1.015794,10.76418 5.5281679,9.3516852 32.794993 0 0 1.054692,0.475758 c 0.30907,-0.235757 0.6113,-0.477328 0.86658,-0.775321 0.381247,-0.397057 0.750845,-0.781016 1.273878,-0.994788 0.67183,-0.335956 0.939328,-0.606656 1.032208,-1.392054 0.105018,-0.862857 0.0513,-1.567704 0.726197,-2.20618 0.319307,-0.262412 0.693206,-0.479158 0.995197,-0.759644 0.350619,-0.32565 0.57226,-0.73611 0.707247,-1.190796 0.208125,-0.907754 0.15753,-1.348204 0.953019,-1.9573 0.418517,-0.292967 0.29533,-0.212051 0.719541,-0.488845 0.303437,-0.197987 0.601234,-0.379309 0.747953,-0.728204 0.2124,-0.625057 0.315353,-1.306615 0.697527,-1.857983 0.0465,-0.07897 0.102475,-0.152868 0.139055,-0.236886 0.213298,-0.489951 0.03827,-1.055482 0.142404,-1.566579 0.100694,-0.545168 0.329624,-1.030735 0.636048,-1.489833 a 5.5281679,9.3516852 32.794993 0 0 -2.275263,-0.765661 z m 2.923922,1.31814 c -0.277689,0.398725 -0.46944,0.834923 -0.552544,1.318619 -0.10753,0.514137 0.06295,1.080293 -0.150373,1.572902 -0.039,0.09008 -0.09879,0.16957 -0.148248,0.254372 -0.392011,0.542561 -0.486577,1.219001 -0.690549,1.841856 -0.150401,0.375776 -0.451874,0.571305 -0.781844,0.774035 -0.47404,0.291249 -0.272383,0.160505 -0.729909,0.477797 -0.726617,0.548489 -0.722014,1.078494 -0.929017,1.903984 -0.142929,0.464732 -0.368303,0.887734 -0.723852,1.225752 -0.300809,0.285978 -0.673382,0.50892 -0.991905,0.776562 -0.614977,0.562447 -0.617465,1.37638 -0.702229,2.149293 -0.08365,0.799453 -0.369724,1.116649 -1.050582,1.473417 -0.529872,0.21459 -0.87667,0.566421 -1.254911,0.973189 -0.229154,0.273228 -0.501348,0.495578 -0.780686,0.710688 a 5.5281679,9.3516852 32.794993 0 0 7.385666,-4.098147 5.5281679,9.3516852 32.794993 0 0 2.272368,-11.208375 5.5281679,9.3516852 32.794993 0 0 -0.171385,-0.145944 z M 168.2901,50.245857 a 5.7943634,3.7083923 32.052634 0 0 -3.22207,1.775894 5.7943634,3.7083923 32.052634 0 0 3.50334,5.965102 5.7943634,3.7083923 32.052634 0 0 6.54081,-0.269866 l 0.34825,-0.958874 a 5.7943634,3.7083923 32.052634 0 0 -0.009,-0.05389 c -0.0308,-0.02403 -0.0218,-0.01206 -0.0678,-0.04752 -0.92677,-0.843306 -1.64248,-1.90135 -2.67419,-2.629298 0.0385,0.01508 0.15288,0.06164 0.11511,0.04524 -0.18339,-0.07942 -0.36504,-0.16308 -0.55186,-0.234074 -0.54671,-0.207775 -1.10552,-0.369716 -1.64772,-0.592103 -0.18334,-0.07518 -0.36527,-0.154004 -0.54781,-0.23099 -0.39686,-0.211056 -0.79896,-0.412497 -1.19052,-0.633204 -0.72313,-0.407628 -1.31876,-0.998092 -1.95402,-1.523545 l 0.78236,0.315199 c 0.60962,0.520658 1.18595,1.099811 1.89832,1.483063 0.0564,0.03036 -0.0987,-0.08142 -0.14842,-0.122088 0.18229,0.0785 0.36325,0.159278 0.54652,0.235455 0.47184,0.196138 0.60754,0.244016 1.09509,0.412024 0.35027,0.120706 0.77542,0.242637 1.10494,0.415485 0.41478,0.217568 0.81225,0.466543 1.21839,0.699844 0.75823,0.528526 1.31347,1.274443 1.93985,1.940735 a 5.7943634,3.7083923 32.052634 0 0 -4.23717,-5.298141 5.7943634,3.7083923 32.052634 0 0 -2.84193,-0.694485 z M 33.875591,59.954091 a 5.0990397,8.9705539 34.60488 0 0 -6.338842,3.597591 5.0990397,8.9705539 34.60488 0 0 -3.503154,8.532239 c 0.0664,-0.172144 0.136022,-0.343281 0.214851,-0.510175 0.128626,-0.217858 0.272859,-0.435245 0.471816,-0.596565 0.249262,-0.202107 0.196552,-0.09288 0.443783,-0.31885 0.07436,-0.06795 0.136195,-0.148597 0.204314,-0.222811 0.519516,-0.653958 0.687126,-1.483274 0.985423,-2.243984 0.102371,-0.312929 0.343406,-0.472224 0.569552,-0.681389 0.151162,-0.139813 0.271136,-0.284758 0.407353,-0.439367 0.306101,-0.422869 0.569231,-0.907942 1.027056,-1.191283 0.08877,-0.05493 0.18704,-0.09326 0.280519,-0.139711 0.663936,-0.232815 1.192714,-0.388864 1.536426,-1.057153 0.067,-0.130259 0.110593,-0.271468 0.165918,-0.407096 0.25334,-0.499638 0.122895,-1.15604 0.364604,-1.649957 0.03451,-0.07052 0.08765,-0.130596 0.131433,-0.195775 0.248836,-0.311246 0.603069,-0.468749 0.937718,-0.663174 0.383416,-0.22276 0.4746,-0.301864 0.848555,-0.568179 0.465657,-0.390084 0.951734,-0.764769 1.353237,-1.223945 a 5.0990397,8.9705539 34.60488 0 0 -0.100563,-0.02042 z m 0.972974,0.195558 c -0.03606,0.04796 -0.05247,0.08981 -0.09803,0.145934 -0.416376,0.512943 -0.968937,0.885116 -1.462495,1.316468 -0.337619,0.251789 -0.483898,0.372679 -0.831835,0.590313 -0.313586,0.196146 -0.660123,0.347605 -0.899564,0.642281 -0.04118,0.05813 -0.09132,0.110777 -0.123615,0.174288 -0.241116,0.47417 -0.141077,1.156692 -0.392358,1.63997 -0.05667,0.140306 -0.101807,0.286009 -0.170239,0.420965 -0.354302,0.698699 -0.851377,0.859887 -1.544877,1.104964 -0.66132,0.310803 -0.896628,0.711815 -1.291359,1.30184 -0.07587,0.0889 -0.31278,0.371161 -0.40136,0.458935 -0.208009,0.206117 -0.462875,0.337945 -0.564185,0.637624 -0.323225,0.76026 -0.497825,1.59441 -0.996766,2.269961 -0.06971,0.079 -0.132899,0.164397 -0.209077,0.237139 -0.240589,0.229879 -0.189209,0.125898 -0.432214,0.31606 -0.194908,0.152516 -0.33968,0.354932 -0.459601,0.568787 -0.200103,0.410569 -0.381007,0.841829 -0.390764,1.304974 l -0.276568,-0.137321 a 5.0990397,8.9705539 34.60488 0 0 0.274237,1.074484 l 0.940844,1.050946 a 5.0990397,8.9705539 34.60488 0 0 8.935379,-3.992145 5.0990397,8.9705539 34.60488 0 0 1.776297,-10.313613 5.0990397,8.9705539 34.60488 0 0 -1.381854,-0.812854 z m 121.752295,6.810905 a 6.328045,10.207947 58.876032 0 0 -9.65138,3.846677 6.328045,10.207947 58.876032 0 0 -2.22603,10.032147 6.328045,10.207947 58.876032 0 0 1.25794,0.729333 c 0.1514,-0.116467 0.28569,-0.248359 0.44645,-0.409429 0.52274,-0.667065 0.82364,-1.469601 1.34108,-2.138662 0.46498,-0.361905 0.88883,-0.772426 1.3433,-1.146686 0.0992,-0.08174 0.19265,-0.172762 0.30317,-0.238503 0.0913,-0.05425 0.19762,-0.07835 0.29636,-0.11757 0.57194,0.01198 0.91481,0.282441 1.40104,0.588753 0.0511,0.0116 0.12709,0.03149 0.22221,0.05401 0.43177,-0.04982 0.72048,-0.396189 1.08474,-0.590585 0.22711,-0.121219 0.347,-0.131121 0.59452,-0.187868 0.20498,-0.03599 0.48045,-0.0587 0.64874,-0.204458 0.43307,-0.375023 0.64579,-1.080946 0.90554,-1.571898 0.0926,-0.174944 0.2017,-0.339954 0.30272,-0.510141 0.1137,-0.121089 0.21387,-0.256665 0.34121,-0.363337 0.59258,-0.496403 1.31867,-0.308228 1.98554,-0.115085 0.44768,0.113813 1.29912,0.646256 1.75504,0.526813 0.0598,-0.01564 0.10795,-0.05958 0.16194,-0.08947 0.0453,-0.04211 0.0951,-0.08019 0.13611,-0.126687 0.044,-0.05008 0.15918,-0.23454 0.1992,-0.289223 0.1143,-0.156095 0.2418,-0.250102 0.39876,-0.362562 0.58224,-0.364575 1.13575,-0.767703 1.68508,-1.179057 A 6.328045,10.207947 58.876032 0 0 160.9936,68.818601 L 159.61443,67.6917 a 6.328045,10.207947 58.876032 0 0 -3.01357,-0.731149 z m 4.47547,7.382384 c -0.17468,0.122405 -0.34378,0.252558 -0.52087,0.37179 -0.0434,0.03352 -0.22402,0.167855 -0.27879,0.223557 -0.17096,0.173845 -0.25562,0.417232 -0.45744,0.563418 -0.0626,0.03942 -0.11729,0.09469 -0.1875,0.11782 -0.46,0.151864 -1.34658,-0.390126 -1.79555,-0.519276 -0.64113,-0.192704 -1.35242,-0.416988 -1.94438,0.03888 -0.12789,0.09847 -0.22969,0.226746 -0.34454,0.340167 -0.1018,0.166837 -0.21281,0.328313 -0.30551,0.500368 -0.26097,0.484353 -0.50244,1.253415 -0.89998,1.638295 -0.18215,0.176344 -0.42301,0.186066 -0.65077,0.225002 -0.21726,0.04334 -0.37853,0.06007 -0.57916,0.161841 -0.38377,0.194679 -0.67785,0.558852 -1.11629,0.646657 -0.62674,-0.105249 -0.2568,-0.0114 -1.24702,-0.574665 -0.0351,-0.02007 -0.10053,-0.05788 -0.15747,-0.09166 -0.13304,-0.0548 -0.24697,-0.09146 -0.19731,-0.01545 -0.0972,0.03008 -0.20206,0.04221 -0.29172,0.09031 -0.1131,0.06065 -0.20767,0.151531 -0.30815,0.231416 -0.45557,0.36208 -0.86789,0.773993 -1.31656,1.144193 -0.54444,0.653867 -0.84951,1.459208 -1.37283,2.129609 -0.0961,0.09887 -0.18369,0.191744 -0.27419,0.282828 a 6.328045,10.207947 58.876032 0 0 10.25582,-2.758962 6.328045,10.207947 58.876032 0 0 3.99021,-4.746113 z M 43.041581,85.82055 a 6.3967744,10.563281 9.4021303 0 0 -6.616132,7.491628 6.3967744,10.563281 9.4021303 0 0 2.615825,12.786322 6.3967744,10.563281 9.4021303 0 0 1.714031,0.4844 c 0.210567,-0.12333 0.422864,-0.24475 0.5818,-0.43529 0.235696,-0.27442 0.439991,-0.60186 0.507914,-0.96045 0.0015,-0.44774 -0.201884,-0.80157 -0.128647,-1.2365 0.186783,-0.4857 0.539806,-0.85156 0.851539,-1.2587 0.03089,-0.0676 0.07175,-0.13119 0.09255,-0.20253 0.05901,-0.2022 0.02504,-0.30041 0.02037,-0.51226 -0.0087,-0.39246 0.03294,-0.78135 0.06557,-1.17196 0.09244,-0.990144 0.230881,-1.973543 0.341825,-2.9611 -0.0076,-0.772686 -0.0054,-1.545703 0.02614,-2.317901 0.03938,-0.662635 0.138715,-1.315211 0.393914,-1.933488 0.232459,-0.709343 0.298739,-1.45717 0.03789,-2.171713 -0.317385,-0.827553 -0.652793,-1.361885 -0.439376,-2.302155 0.115911,-0.639043 0.239162,-1.274212 0.385703,-1.907081 0.08062,-0.348113 0.183559,-0.691064 0.247504,-1.042624 0.015,-0.08246 0.02005,-0.166441 0.02742,-0.250061 a 6.3967744,10.563281 9.4021303 0 0 -0.725801,-0.09854 z m 0.991106,0.134719 0.502935,0.250166 c -0.292059,1.0816 -0.557375,2.164407 -0.74199,3.270596 -0.194189,0.934512 0.190356,1.463736 0.494483,2.281979 0.248583,0.728077 0.164783,1.500156 -0.0619,2.220577 -0.249542,0.612002 -0.342143,1.2584 -0.392343,1.912063 -0.04124,0.770928 -0.02529,1.543166 -0.01904,2.31471 -0.136186,0.984705 -0.286019,1.96493 -0.366845,2.95689 -0.0096,0.15249 -0.0205,0.30492 -0.02893,0.45748 -0.01918,0.34659 -0.0257,0.3907 -0.0081,0.72045 0.01245,0.23276 0.05145,0.3049 -0.01488,0.5296 -0.02323,0.0787 -0.06846,0.14893 -0.102608,0.22358 -0.30632,0.40968 -0.673481,0.76194 -0.846235,1.25417 -0.05733,0.26586 0.06987,0.50906 0.119511,0.76379 0.04021,0.20623 0.02778,0.23909 0.02182,0.44805 -0.06422,0.35107 -0.259107,0.66247 -0.480465,0.93966 a 6.3967744,10.563281 9.4021303 0 0 5.632115,-5.9176 6.3967744,10.563281 9.4021303 0 0 -1.43231,-13.537118 L 44.768737,86.055486 A 6.3967744,10.563281 9.4021303 0 0 44.032665,85.95527 Z m 125.232773,1.081836 a 8.8074312,6.2579126 74.06556 0 0 -0.55777,0.158957 c 0.19105,0.515262 0.40936,1.021938 0.61195,1.531013 0.0445,0.125369 0.17288,0.455705 0.1803,0.59503 0.0249,0.466782 -0.18323,1.189934 -0.28065,1.661612 -0.1162,0.791514 0.41914,1.069991 0.98483,1.484066 0.4638,0.344569 1.28859,0.827255 1.48314,1.402413 0.03,0.08866 0.0286,0.184962 0.0428,0.277463 -0.0351,0.568766 -0.13981,1.130303 -0.19107,1.698651 0.0243,0.616073 0.0228,1.237683 0.12796,1.846241 0.17583,0.597944 0.4309,1.179752 0.74715,1.717026 0.36207,0.569177 0.51881,1.240013 0.6944,1.884353 0.17248,0.54007 0.17183,1.11005 0.26311,1.66338 0.0462,0.33886 0.15875,0.65912 0.26217,0.98227 l 1.15172,-0.58322 a 8.8074312,6.2579126 74.06556 0 0 1.45456,-11.09457 8.8074312,6.2579126 74.06556 0 0 -6.97472,-5.224682 z m -1.09997,0.313295 a 8.8074312,6.2579126 74.06556 0 0 -0.53954,0.153421 8.8074312,6.2579126 74.06556 0 0 -2.62646,10.447809 8.8074312,6.2579126 74.06556 0 0 8.13364,6.18113 l -0.12726,-0.0594 c -0.0162,-0.0595 -0.0324,-0.11853 -0.0486,-0.17793 -0.13348,-0.42694 -0.27308,-0.85335 -0.33534,-1.29824 -0.0708,-0.55013 -0.0878,-1.10921 -0.24776,-1.64525 -0.17338,-0.64301 -0.35111,-1.300211 -0.71029,-1.868148 -0.30822,-0.548496 -0.57568,-1.130796 -0.73045,-1.742144 -0.0963,-0.61538 -0.11925,-1.245459 -0.1246,-1.867694 0.0521,-0.561411 0.15446,-1.118201 0.17738,-1.681118 -0.0164,-0.08383 -0.0192,-0.171633 -0.0493,-0.251525 -0.21865,-0.578911 -1.01709,-1.004069 -1.48186,-1.362731 -0.59603,-0.439451 -1.10328,-0.743196 -0.94864,-1.568726 0.11391,-0.518569 0.30052,-1.098177 0.25101,-1.635005 -0.0116,-0.123742 -0.13639,-0.468685 -0.17481,-0.581695 -0.13255,-0.348782 -0.27743,-0.694962 -0.4171,-1.042741 z M 60.937676,108.13627 a 3.753637,5.9881269 59.492981 0 0 -2.958313,0.75185 3.753637,5.9881269 59.492981 0 0 -4.409191,5.90461 l 0.384087,0.9512 a 3.753637,5.9881269 59.492981 0 0 0.506044,0.33888 c 0.448071,-0.35438 0.920367,-0.58308 1.509873,-0.67507 0.361265,-0.0689 0.815227,0.002 1.131586,-0.22842 0.168402,-0.12253 0.266183,-0.33241 0.368378,-0.50187 0.24864,-0.45452 0.394068,-0.97877 0.7411,-1.37579 0.19689,-0.22525 0.341822,-0.29385 0.59317,-0.45817 0.617915,-0.42018 1.417274,-0.37907 2.038688,-0.78513 0.16105,-0.1052 0.296066,-0.24559 0.444182,-0.36836 0.708332,-0.6301 1.052633,-1.40347 1.35536,-2.27261 0.03936,-0.0861 0.06616,-0.17913 0.117873,-0.25855 0.11709,-0.17971 0.302709,-0.31797 0.505012,-0.4421 a 3.753637,5.9881269 59.492981 0 0 -2.327849,-0.58047 z m 89.791564,0.0143 a 5.0990397,8.5756572 89.433392 0 0 -2.13446,0.12135 5.0990397,8.5756572 89.433392 0 0 -6.70068,5.75155 5.0990397,8.5756572 89.433392 0 0 9.12271,4.30556 5.0990397,8.5756572 89.433392 0 0 7.84291,-4.40688 c -0.0224,0.0107 -0.0466,0.0161 -0.0688,0.027 -0.55263,0.36209 -1.19638,0.43697 -1.83334,0.53331 -0.62003,0.10503 -1.20862,0.33047 -1.82288,0.46096 -0.51108,0.0606 -0.84141,0.11544 -1.27882,0.40382 -0.49331,0.36249 -0.58699,0.4982 -1.22001,0.3533 -0.37324,-0.13359 -0.72402,-0.32421 -1.12105,-0.37474 -0.39568,-0.0253 -0.7731,0.0899 -1.14701,0.20224 -0.47646,0.14255 -0.97239,0.18355 -1.46627,0.21212 -0.53794,0.003 -1.06808,-0.0875 -1.59764,-0.17021 -0.42567,-0.11 -0.85718,-0.0211 -1.2864,-0.0461 -0.55875,-0.0312 -1.03246,-0.32185 -1.51291,-0.57872 -1.14176,-0.54201 -1.37902,-1.00159 -2.05504,-1.95165 l 0.74176,0.3138 c 0.28779,0.40553 0.55663,0.84355 0.92076,1.18676 0.07,0.066 0.31499,0.20691 0.22129,0.18516 -0.0279,-0.005 -0.0541,-0.0179 -0.0806,-0.0282 0.34406,0.18662 0.69718,0.35402 1.09394,0.3866 0.43037,0.0421 0.8641,-0.077 1.29218,0.0426 0.52673,0.0844 1.05296,0.17467 1.58797,0.18457 0.48785,-0.0264 0.97839,-0.0615 1.44991,-0.19945 0.37881,-0.11517 0.75793,-0.24322 1.15961,-0.23271 0.40583,0.0232 0.76551,0.21468 1.13528,0.36926 0.6586,0.18132 0.64998,0.0838 1.18178,-0.29493 0.4182,-0.28483 0.79519,-0.39654 1.29865,-0.43035 0.62256,-0.12036 1.21879,-0.33896 1.84305,-0.45133 0.62342,-0.0993 1.2593,-0.16529 1.79995,-0.52316 0.27616,-0.15057 0.57261,-0.23492 0.8624,-0.34218 l -0.32841,-1.36521 a 5.0990397,8.5756572 89.433392 0 0 -7.8998,-3.64411 z m -86.945391,1.10964 c -0.126559,0.0919 -0.233242,0.19077 -0.303495,0.29694 -0.05105,0.0771 -0.078,0.16754 -0.117052,0.25139 -0.328918,0.85335 -0.709567,1.66675 -1.412305,2.28746 -0.389825,0.33734 -0.449651,0.44542 -0.920972,0.64247 -0.499666,0.20892 -1.085766,0.20814 -1.542934,0.53447 -0.222211,0.14577 -0.394961,0.23714 -0.573775,0.43477 -0.352215,0.38924 -0.498768,0.91347 -0.737599,1.36907 -0.109034,0.19406 -0.19945,0.40802 -0.382172,0.55018 -0.316128,0.24597 -0.780632,0.18654 -1.150151,0.24555 -0.573424,0.0823 -1.076117,0.2999 -1.526177,0.65026 a 3.753637,5.9881269 59.492981 0 0 5.682506,-0.6414 3.753637,5.9881269 59.492981 0 0 3.543468,-6.03478 3.753637,5.9881269 59.492981 0 0 -0.559342,-0.58638 z m -30.141876,1.71606 a 8.8074329,15.884128 89.433392 0 0 -14.500575,6.57313 l -0.502224,2.12233 c 0.07192,0.19355 0.130295,0.39207 0.213606,0.58132 0.142365,0.33887 0.270345,0.6957 0.438769,1.02335 0.02914,0.0566 0.05962,0.11356 0.09974,0.16316 0.0048,0.006 0.01826,0.0151 0.0261,0.0226 0.493468,0.19776 1.006673,0.33631 1.537164,0.41568 0.886869,0.10324 1.351456,0.12148 2.108228,-0.42855 0.281389,-0.24597 0.37862,-0.31435 0.629215,-0.60213 0.470422,-0.54025 0.857063,-1.16245 1.428831,-1.60829 0.109226,-0.0375 0.212937,-0.0988 0.327623,-0.11254 0.202844,-0.0241 0.450084,0.092 0.63041,0.15034 0.287197,0.0929 0.450204,0.14873 0.756909,0.17762 0.146465,0.0137 0.294163,0.007 0.44124,0.0103 0.149407,-0.008 0.299748,-0.003 0.448039,-0.0239 0.656226,-0.0879 1.245564,-0.41052 1.810821,-0.73337 0.241281,-0.12351 0.718439,-0.39778 1.011074,-0.28164 0.503157,0.1997 1.000676,0.50368 1.447931,0.8189 0.08154,0.0671 0.162589,0.1349 0.244641,0.20142 0.06071,0.0493 0.215778,0.13653 0.264051,0.17981 0.174474,0.0624 0.33154,0.10328 0.311518,0.0182 0.58042,-0.0597 1.153485,-0.1656 1.733803,-0.22279 0.644404,0.0369 1.233872,0.22732 1.776562,0.58282 0.803136,0.44606 1.032027,0.60762 1.84705,0.0447 0.282482,-0.25012 0.522712,-0.51561 0.771339,-0.79891 0.07149,-0.0814 0.108266,-0.24494 0.21661,-0.24254 0.07997,0.002 0.129507,0.009 0.193721,0.0137 -0.0188,-0.015 -0.03984,-0.0282 -0.0571,-0.0445 -0.02968,-0.0282 0.03653,0.013 0.09278,0.0468 0.425792,0.0342 0.546102,0.13148 0.815746,0.35368 0.337938,0.49237 -0.09439,-0.14367 0.24504,0.37716 0.01313,0.0202 0.04241,0.05 0.06856,0.0778 0.007,4.1e-4 0.01437,7e-5 0.02143,4.7e-4 0.304241,-0.009 0.83842,-0.0579 1.120095,0.0531 0.325246,0.12817 0.632319,0.29776 0.942576,0.45948 0.60383,0.32022 0.910593,0.43833 1.544762,0.0562 0.75531,-0.40277 -0.171969,0.0839 0.639611,-0.31721 0.562642,-0.27807 1.093959,-0.62684 1.697158,-0.8161 0.177639,-0.0468 0.622789,-0.20202 0.833329,-0.12332 0.993821,0.37137 1.090854,0.64598 1.719453,1.30329 0.100916,0.0775 0.250798,0.12036 0.316223,0.22301 0.02891,0.0151 0.05794,0.0287 0.08867,0.0362 0.245524,0.0597 0.486042,0.002 0.69821,-0.12021 l 0.09422,0.0567 a 8.8074329,15.884128 89.433392 0 0 -12.636145,-9.53234 8.8074329,15.884128 89.433392 0 0 -3.956852,-0.13434 z m 5.747905,8.04643 c -0.01136,-6.9e-4 -0.02389,-0.001 -0.03573,-0.003 0.03924,0.0313 0.07889,0.0623 0.121769,0.0902 -0.0092,-0.0145 -0.03017,-0.0501 -0.03627,-0.0586 -0.01135,-0.006 -0.03204,-0.0188 -0.04979,-0.0294 z m 138.481152,-4.64882 a 6.7214619,12.747599 89.433392 0 0 -3.17331,0.16389 6.7214619,12.747599 89.433392 0 0 -9.96984,7.59305 6.7214619,12.747599 89.433392 0 0 0.39762,0.69546 c 0.007,0.002 0.006,0.003 0.0143,0.005 0.46749,0.0748 0.9456,-0.002 1.40963,0.1038 0.26903,0.0612 0.36753,0.12265 0.61298,0.23706 -1.4855,-1.38787 0.1476,-0.054 0.92905,0.53586 5.3e-4,-0.007 -6.4e-4,-0.0147 0.004,-0.0238 0.0563,-0.12872 0.27173,0.0757 0.41128,0.0919 0.29873,0.0345 0.54438,-0.006 0.83954,-0.0356 0.82293,-0.0327 1.09253,0.21638 1.85876,0.72962 0.003,0.002 0.62592,0.57461 0.6387,0.58381 0.11941,0.0858 0.2562,0.14443 0.3844,0.21653 -0.0721,-0.0709 -0.31292,-0.1815 -0.21667,-0.21285 0.16195,-0.0529 0.32963,0.087 0.49634,0.12176 0.53247,0.11142 1.07327,0.13646 1.61297,0.18835 0.54864,0.10242 1.07716,0.40407 1.43647,0.83238 0.0209,0.0249 0.038,0.0525 0.0566,0.0792 0.23892,-0.0429 0.46082,-0.18416 0.67877,-0.28103 0.13356,-0.0593 0.34595,-0.14001 0.48071,-0.19254 0.56694,-0.19728 1.16095,-0.28052 1.75744,-0.31488 0.71916,0.0193 1.38903,-0.1854 2.03045,-0.48932 0.0904,-0.0242 0.17807,-0.0609 0.27092,-0.0731 0.38829,-0.0513 1.08632,0.14621 1.49538,0.2051 0.63787,0.10807 1.2771,0.061 1.91679,0.0136 0.5214,-0.0643 1.02634,-0.067 1.53251,0.0803 0.24055,0.0968 0.49501,0.12267 0.74995,0.14958 l 0.24127,0.1756 a 6.7214619,12.747599 89.433392 0 0 3.32808,-4.58434 l -0.48749,-1.80256 a 6.7214619,12.747599 89.433392 0 0 -11.73618,-4.79124 z m -146.723693,4.50465 c 0.01739,0.0169 0.03748,0.031 0.05092,0.0521 0.05292,0.0827 -0.195397,-0.0356 -0.29333,-0.028 -0.293365,0.023 -0.42899,0.11825 -0.6912,0.24235 -0.573729,0.32309 -1.162534,0.65076 -1.82497,0.74645 -0.152099,0.0218 -0.306693,0.0212 -0.460003,0.0317 -0.147776,-9.2e-4 -0.296018,0.007 -0.443409,-0.004 -0.303219,-0.022 -0.475208,-0.0689 -0.761141,-0.15439 -0.166027,-0.0495 -0.427947,-0.16416 -0.614827,-0.15316 -0.107133,0.006 -0.20796,0.0538 -0.31188,0.0807 -0.600121,0.3931 -0.970222,1.01677 -1.42313,1.55336 -0.255539,0.30278 -0.338692,0.36065 -0.626356,0.62042 -0.76247,0.57202 -1.231543,0.58691 -2.143341,0.48642 -0.679768,-0.10095 -1.342721,-0.27934 -1.96555,-0.56935 -0.211699,-0.12125 -0.424079,-0.24131 -0.635193,-0.36349 a 8.8074329,15.884128 89.433392 0 0 14.465397,7.14397 8.8074329,15.884128 89.433392 0 0 16.574635,-7.43487 c -0.111678,-0.0236 -0.224539,-0.0269 -0.333114,-0.0824 -0.949527,-0.48516 -0.844363,-0.42965 -1.418747,-0.88966 -0.09294,-0.0998 -0.185683,-0.19943 -0.278615,-0.29921 -0.05094,-0.059 -0.102105,-0.11785 -0.152958,-0.17691 -0.08573,-0.0199 -0.201373,-0.0665 -0.274019,-0.0601 -0.15018,0.0133 -0.295013,0.063 -0.442432,0.0945 -0.603805,0.16995 -1.129046,0.51686 -1.680347,0.8021 -1.029469,0.53265 0.315984,-0.18881 -0.630637,0.32293 -0.639142,0.39614 -0.965174,0.32324 -1.607083,0.001 1.426331,1.50126 -0.170544,0.0958 -0.927904,-0.50957 0.0053,0.0134 0.0066,0.0284 0.003,0.0454 -0.02551,0.12716 -0.254488,-0.0511 -0.383351,-0.0653 -0.259431,-0.0285 -0.455757,-0.0152 -0.713773,-0.009 -0.09578,-0.004 -0.193501,0.007 -0.287384,-0.0138 -0.08239,-0.0173 -0.161993,-0.0521 -0.234225,-0.0954 -0.299812,-0.17935 -0.602271,-0.35701 -0.878996,-0.57027 -0.0039,-0.003 -0.02155,-0.0342 -0.02761,-0.0416 -0.04715,0.0281 -0.09986,0.0551 -0.130277,0.0869 -0.260299,0.27212 -0.500496,0.54754 -0.779791,0.80122 -0.814402,0.57707 -1.068803,0.48534 -1.906032,0.0367 -0.536712,-0.34486 -1.111654,-0.55181 -1.745988,-0.60364 -0.577816,0.0376 -1.147787,0.14699 -1.723199,0.21242 -0.29096,0.0356 -0.548646,-0.0402 -0.800684,-0.18389 -0.770022,-0.43914 -0.89496,-0.52465 -1.455818,-0.98519 0.06863,0.034 0.0052,-0.009 -0.08676,-0.0674 z m 0.860775,0.5321 c 0.0066,0.005 0.04896,0.0255 0.09683,0.049 -0.02006,-0.0114 -0.0389,-0.0264 -0.05968,-0.0355 -0.03149,-0.0139 -0.04228,-0.0175 -0.03715,-0.0134 z m 8.007367,0.26826 c -0.0098,0.005 0.164941,0.10777 0.235442,0.12837 0.0087,0.003 0.01769,0.002 0.02637,0.004 -0.08061,-0.0456 -0.16045,-0.095 -0.245697,-0.12783 -0.0098,-0.004 -0.01469,-0.006 -0.01614,-0.005 z m 1.932689,0.40375 c -0.0101,1.1e-4 -0.0082,0.0118 0.0085,0.0373 0.0451,0.0702 0.159354,0.0998 0.245361,0.13852 -0.123475,-0.0957 -0.230679,-0.17617 -0.253758,-0.1759 z m 21.965456,1.03704 a 5.3017856,9.7800956 73.104413 0 0 -2.344199,0.29215 5.3017856,9.7800956 73.104413 0 0 -9.637171,6.9974 l 0.123684,1.45645 a 5.3017856,9.7800956 73.104413 0 0 10.421808,2.25295 5.3017856,9.7800956 73.104413 0 0 7.605919,-4.87422 c -0.05925,0.0336 -0.11813,0.0683 -0.176956,0.1026 -0.523288,0.30557 -1.393781,0.86001 -1.97611,0.97898 -0.102661,0.0214 -0.208815,0.0147 -0.313351,0.0218 -0.628268,-0.13985 -1.19759,-0.24885 -1.839304,-0.0715 -0.585029,0.11425 -1.168775,0.21161 -1.765968,0.21774 -0.518883,0.20857 -0.586154,0.8875 -0.896214,1.2966 -0.07697,0.10792 -0.143171,0.22456 -0.230969,0.32388 -0.517685,0.58563 -1.330878,0.63012 -2.034083,0.84485 -1.321676,0.42962 -2.618188,0.96595 -4.005195,1.1565 -0.610982,0.004 -1.219964,-0.0497 -1.830741,-0.0176 l -0.696716,-0.49579 c 0.629325,-0.007 1.256106,0.0444 1.88508,0.055 1.397885,-0.12372 2.68744,-0.68377 4.00056,-1.12881 0.679182,-0.22346 1.48181,-0.27164 1.990476,-0.83417 0.08508,-0.094 0.14911,-0.20548 0.223544,-0.30818 0.311486,-0.43975 0.386096,-1.07497 0.887654,-1.35049 0.06165,-0.0119 0.122284,-0.0291 0.184756,-0.0357 0.178898,-0.0178 0.359682,-0.007 0.539103,-0.0172 0.365899,-0.0245 0.721299,-0.093 1.080489,-0.16322 0.640473,-0.173 1.213694,-0.10019 1.845635,0.0349 0.102554,-1.4e-4 0.205784,0.0137 0.307311,-0.001 0.605321,-0.0866 1.442792,-0.62521 1.975681,-0.93171 0.477002,-0.27844 0.954459,-0.55878 1.429723,-0.84199 a 5.3017856,9.7800956 73.104413 0 0 0.184173,-1.4024 5.3017856,9.7800956 73.104413 0 0 -6.938608,-3.55728 z m 85.919736,0.26809 a 9.3855956,5.2814293 17.11706 0 0 -6.56318,3.69034 9.3855956,5.2814293 17.11706 0 0 0.02,0.0833 l 0.32756,0.14976 c 0.13573,0.51743 0.6447,0.89411 1.07312,1.21334 -0.005,-0.007 -0.001,-0.0134 0.0133,-0.0144 0.16604,-0.0125 0.32168,0.0888 0.48598,0.11563 0.27777,0.0453 0.56483,0.0136 0.84186,0.063 0.56863,0.1014 0.89078,0.42587 1.41874,0.75183 0.507,0.58538 0.77152,1.36766 1.37803,1.8709 8.1e-4,-0.006 -6.9e-4,-0.0124 0.003,-0.0197 0.0507,-0.12582 0.26049,0.0767 0.39311,0.10542 0.49249,0.10608 0.99895,0.11988 1.50046,0.13011 0.70307,0.0811 1.36546,0.36522 2.04133,0.56593 0.82819,0.21022 1.49326,0.58819 2.14898,1.16567 0.0591,0.052 0.5962,0.84806 0.64289,0.9165 0.13457,0.20212 0.2717,0.40569 0.42252,0.59754 a 9.3855956,5.2814293 17.11706 0 0 5.35625,-2.87065 l 0.0899,-1.45855 a 9.3855956,5.2814293 17.11706 0 0 -9.34687,-6.80966 9.3855956,5.2814293 17.11706 0 0 -2.24604,-0.24631 z m 15.48642,1.77867 a 6.7214619,12.747599 89.433392 0 0 12.96182,4.62397 6.7214619,12.747599 89.433392 0 0 8.15697,-2.06066 c -5.9e-4,-2.4e-4 -8.8e-4,-2.1e-4 -0.002,-4.3e-4 -0.49891,-0.17244 -0.99825,-0.17502 -1.51944,-0.11036 -0.64604,0.0501 -1.29238,0.0925 -1.93722,-0.007 -0.3464,-0.0425 -0.33083,-0.034 -0.65487,-0.0975 -0.26085,-0.051 -0.54252,-0.14586 -0.81216,-0.12534 -0.0899,0.007 -0.17599,0.0389 -0.26391,0.0584 -0.65066,0.29926 -1.32648,0.52455 -2.05346,0.5105 -0.58681,0.0403 -1.17567,0.104 -1.73437,0.29995 -0.0386,0.0153 -0.43037,0.16922 -0.47541,0.18893 -0.23372,0.10218 -0.46196,0.24821 -0.71102,0.31211 -0.0795,0.0204 -0.16246,0.0217 -0.24367,0.0322 -0.30375,-0.16545 -0.61973,-0.31022 -0.91127,-0.49635 -0.0476,-0.0304 -0.29792,-0.37345 -0.32514,-0.40314 -0.0124,-0.0135 -0.0419,-0.0328 -0.0639,-0.0497 -1.15028,-0.13482 -2.23723,-0.16869 -3.25164,-0.85323 -0.53487,-0.32683 -0.23998,-0.11315 -0.692,-0.51637 -0.0966,-0.0863 -0.28251,-0.13154 -0.32267,-0.24215 -0.14885,-0.0931 -0.30199,-0.1878 -0.46107,-0.032 -0.39416,0.0438 -0.88863,0.14084 -1.27187,-0.0206 -0.36358,-0.15301 -0.70294,-0.35734 -1.0509,-0.54315 -0.0707,-0.0379 -0.23252,-0.12193 -0.29376,-0.16081 -0.0547,-0.0205 -0.11351,-0.0396 -0.18299,-0.0579 -0.46185,-0.12092 -0.94212,-0.0432 -1.41093,-0.10115 -0.16285,-0.0293 -0.31394,-0.10318 -0.4734,-0.14876 z m -21.87102,2.64857 a 9.3855956,5.2814293 17.11706 0 0 7.96948,6.54182 9.3855956,5.2814293 17.11706 0 0 4.18791,0.45013 c -0.2982,-0.27263 -0.5512,-0.59028 -0.76889,-0.93801 -0.10368,-0.15121 -0.20332,-0.30524 -0.31092,-0.45368 -0.11136,-0.15361 -0.34124,-0.2623 -0.34569,-0.45199 -0.003,-0.11312 0.3301,0.16409 0.33503,0.0511 0.003,-0.0778 -1.00032,-0.41792 -1.10781,-0.43465 -0.67261,-0.19505 -1.32862,-0.46843 -2.02093,-0.57772 -0.50377,-0.0123 -1.47484,-0.0227 -1.91835,-0.21652 -0.36202,-0.15811 -0.70328,-0.35996 -1.0549,-0.53999 -0.10391,-0.0729 -0.21592,-0.13539 -0.31171,-0.21859 -0.59012,-0.51287 -0.84174,-1.29139 -1.3765,-1.84998 -0.014,-0.007 -0.0278,-0.0141 -0.0421,-0.017 -0.28186,-0.0577 -0.57633,-0.0206 -0.86103,-0.062 -0.77039,-0.11201 -0.79057,-0.25862 -1.68747,-0.72954 -0.22266,-0.1731 -0.46536,-0.35459 -0.68613,-0.55345 z" />
    <rect
       style="opacity:1;fill:url(#linearGradient4);fill-opacity:1;stroke-width:0.155002"
       id="rect27"
       width="211.14999"
       height="9.1143894"
       x="-0.75953233"
       y="168.61621" />
  </g>
</svg>
