<?xml version="1.0" encoding="UTF-8" standalone="no"?>
<!-- Created with Inkscape (http://www.inkscape.org/) -->

<svg
   width="290mm"
   height="188mm"
   viewBox="0 -22 290 188"
   version="1.1"
   id="svg1"
   inkscape:version="1.4 (86a8ad7, 2024-10-11)"
   sodipodi:docname="hero-bg.svg"
   xmlns:inkscape="http://www.inkscape.org/namespaces/inkscape"
   xmlns:sodipodi="http://sodipodi.sourceforge.net/DTD/sodipodi-0.dtd"
   xmlns="http://www.w3.org/2000/svg"
   xmlns:svg="http://www.w3.org/2000/svg">
  <sodipodi:namedview
     id="namedview1"
     pagecolor="#ffffff"
     bordercolor="#000000"
     borderopacity="0.25"
     inkscape:showpageshadow="2"
     inkscape:pageopacity="0.0"
     inkscape:pagecheckerboard="0"
     inkscape:deskcolor="#d1d1d1"
     inkscape:document-units="mm"
     inkscape:zoom="1"
     inkscape:cx="796.5"
     inkscape:cy="378.5"
     inkscape:window-width="1366"
     inkscape:window-height="697"
     inkscape:window-x="-8"
     inkscape:window-y="-8"
     inkscape:window-maximized="1"
     inkscape:current-layer="svg1" />
  <defs
     id="defs1">
    <inkscape:path-effect
       effect="spiro"
       id="path-effect28"
       is_visible="true"
       lpeversion="1" />
    <inkscape:path-effect
       effect="spiro"
       id="path-effect27"
       is_visible="true"
       lpeversion="1" />
    <inkscape:path-effect
       effect="spiro"
       id="path-effect26"
       is_visible="true"
       lpeversion="1" />
    <inkscape:path-effect
       effect="spiro"
       id="path-effect25"
       is_visible="true"
       lpeversion="1" />
    <inkscape:path-effect
       effect="spiro"
       id="path-effect24"
       is_visible="true"
       lpeversion="1" />
  </defs>
  <g
     inkscape:label="Capa 1"
     inkscape:groupmode="layer"
     id="layer1">
    <path
       id="path9"
       style="fill:#ffebcc;fill-opacity:1;stroke-width:0.250507"
       inkscape:label="background"
       d="M 0.04839101,-32.671295 H 290.39431 V 167.41929 H 0.04839101 Z" />
    <path
       id="path28"
       style="fill:#ffd9a7;fill-opacity:1;stroke-width:0.28994"
       d="m 153.78544,-32.808332 c 0.0911,6.459128 0.81011,12.869707 3.16867,18.7871 1.76112,4.4184933 4.4068,8.4904823 7.92661,11.5157067 3.51981,3.02522419 7.94085,4.9588926 12.4769,5.0598781 3.65714,0.081422 7.25215,-1.000137 10.90634,-1.1759034 1.82706,-0.087878 3.68441,0.056606 5.41844,0.6711974 1.73404,0.6145918 3.34355,1.726823 4.39108,3.3111577 0.73016,1.104348 1.16973,2.4094526 1.33808,3.7448462 0.16837,1.3353943 0.0707,2.7009063 -0.21264,4.0143733 -0.56694,2.626935 -1.85432,5.013272 -3.24192,7.273722 -1.38761,2.260451 -2.89906,4.452089 -3.99388,6.88544 -1.09484,2.433352 -1.75957,5.175579 -1.32653,7.830822 0.35764,2.192929 1.45653,4.213466 2.94447,5.788124 1.48791,1.574658 3.3508,2.719622 5.32314,3.499187 3.9447,1.559128 8.24447,1.677513 12.4488,1.939077 27.06133,1.683566 53.62747,10.105332 77.55185,23.575125 0.53917,0.303565 1.05694,0.648695 1.59369,0.957022 V -32.808332 Z" />
  </g>
  <g
     inkscape:groupmode="layer"
     id="layer2"
     inkscape:label="Capa 2">
    <g
       inkscape:groupmode="layer"
       id="layer4"
       inkscape:label="Capa 3">
      <g
         id="g16"
         inkscape:label="chair">
        <path
           id="rect13"
           style="fill:#48332c;stroke-width:0.201717"
           d="m 90.176925,110.38241 v 4.49016 h 1.903243 l -9.258867,36.67167 3.253032,0.92501 9.492444,-37.59668 H 107.2379 l 9.49244,37.59668 3.25303,-0.92501 -9.25886,-36.67167 h 2.651 v -4.49016 z" />
        <rect
           style="fill:#d2a379;fill-opacity:1;stroke-width:0.264583"
           id="rect12"
           width="29.934"
           height="4.4901276"
           x="87.183319"
           y="106.64054"
           rx="2"
           ry="2" />
      </g>
      <path
         id="rect9"
         style="fill:#deb98b;stroke-width:0.264583;fill-opacity:1"
         d="m 52.759005,61.365086 c 0.414589,0 0.748355,2.23 0.748355,5 v 50.242554 c 0,2.77 -0.333766,5 -0.748355,5 -0.414588,0 -0.748354,-2.23 -0.748354,-5 V 66.365086 c 0,-2.77 0.333766,-5 0.748354,-5 z" />
      <path
         id="rect9-5"
         style="fill:#deb98b;stroke-width:0.134836;fill-opacity:1"
         transform="matrix(0.55355882,0.83281008,-0.70892846,0.7052804,0,0)"
         d="m 110.63159,-17.45528 c 0.21561,0 0.38919,1.113611 0.38919,2.496885 v 25.089981 c 0,1.383274 -0.17358,2.496885 -0.38919,2.496885 -0.21562,0 -0.3892,-1.113611 -0.3892,-2.496885 v -25.089981 c 0,-1.383274 0.17358,-2.496885 0.3892,-2.496885 z" />
      <path
         id="rect10"
         style="fill:#deb98b;stroke-width:0.126512;fill-opacity:1"
         transform="matrix(-0.48744183,0.87315546,0.6450793,0.76411563,0,0)"
         d="m 26.204755,73.053154 c 0.205734,0 0.371361,1.027866 0.371361,2.304633 v 23.158127 c 0,1.276767 -0.165627,2.304636 -0.371361,2.304636 -0.205735,0 -0.371362,-1.027869 -0.371362,-2.304636 V 75.357787 c 0,-1.276767 0.165627,-2.304633 0.371362,-2.304633 z" />
      <path
         id="path10"
         style="fill:#a1b57d;stroke-width:0.131249"
         d="m 21.440161,107.95892 a 4.5475476,10.672816 0 0 1 -4.238224,10.6481 4.5475476,10.672816 0 0 1 -4.814791,-9.19953 4.5475476,10.672816 0 0 1 3.583219,-11.899601 4.5475476,10.672816 0 0 1 5.302253,7.580701" />
      <path
         id="path11"
         style="fill:#a1b57d;stroke-width:0.131249"
         d="m 31.801717,115.25851 a 4.5475476,10.672816 45 0 1 -10.526221,4.53246 4.5475476,10.672816 45 0 1 3.10048,-9.90962 4.5475476,10.672816 45 0 1 10.948006,-5.88057 4.5475476,10.672816 45 0 1 -1.611109,9.10963" />
      <path
         id="path12"
         style="fill:#a1b57d;stroke-width:0.131249"
         d="m 8.6335104,109.04641 a 10.672816,4.5473768 45.6 0 1 4.4221016,10.573 10.672816,4.5473768 45.6 0 1 -9.8764816,-3.20421 10.672816,4.5473768 45.6 0 1 -5.765699,-11.00889 10.672816,4.5473768 45.6 0 1 9.092116,1.70655" />
      <text
         xml:space="preserve"
         style="font-size:63.5px;font-family:Bungee;-inkscape-font-specification:Bungee;text-align:start;writing-mode:lr-tb;direction:ltr;text-anchor:start;fill:#a1b57d;fill-opacity:1;stroke-width:0.264583"
         x="145.92915"
         y="110.38231"
         id="text12"><tspan
           sodipodi:role="line"
           id="tspan12"
           style="stroke-width:0.264583"
           x="145.92915"
           y="110.38231" /></text>
      <path
         style="fill:#9dbd7e;fill-opacity:1;stroke-width:0.264583"
         d="M 46.772168,88.680027 C 57.345751,72.353069 76.725948,112.549 86.434963,73.712934 88.603925,65.037088 86.015988,59.075221 79.325596,52.384827 47.365017,20.42425 -0.36393929,76.711473 22.824817,88.305851 c 5.206422,2.603211 22.621521,10.980808 23.947351,0.374176 z"
         id="path17" />
      <path
         id="path18"
         style="fill:#0c0804;stroke-width:0.167292"
         d="m 16.486544,102.8279 c 0.280341,0 0.50603,1.31846 0.50603,2.95619 v 29.70533 c 0,1.63774 -0.225689,2.9562 -0.50603,2.9562 -0.28034,0 -0.506029,-1.31846 -0.506029,-2.9562 v -29.70533 c 0,-1.63773 0.225689,-2.95619 0.506029,-2.95619 z" />
      <path
         id="path19"
         style="fill:#0c0804;stroke-width:0.114325"
         d="m 34.555837,106.49322 c 0.102881,0.15268 -0.49484,0.94342 -1.340198,1.77293 L 17.88245,123.31218 c -0.845356,0.82952 -1.608746,1.37442 -1.711633,1.22174 -0.102894,-0.15268 0.494834,-0.94341 1.340192,-1.77294 l 15.333188,-15.04602 c 0.845358,-0.82951 1.608748,-1.37442 1.71164,-1.22174 z" />
      <path
         id="path20"
         style="fill:#0c0804;stroke-width:0.0987912"
         d="m 0.60235325,107.84797 c -0.0870439,0.13487 0.41839645,0.83313 1.13327315,1.56561 L 14.702133,122.6993 c 0.714877,0.73247 1.360467,1.21358 1.44751,1.07871 0.08704,-0.13487 -0.418398,-0.83313 -1.133274,-1.56561 L 2.0498625,108.92667 c -0.7148768,-0.73246 -1.36046558,-1.21357 -1.44750925,-1.0787 z" />
    </g>
    <path
       id="rect3"
       style="fill:#d3b77d;fill-opacity:1;stroke-width:0.257128"
       d="M 134.8047,85.931282 H 264.77577 V 149.84267 H 134.8047 Z" />
    <path
       id="path4"
       style="fill:#dbc394;fill-opacity:1;stroke-width:0.166331"
       d="m 210.38852,85.931282 h 54.38725 v 63.911388 h -54.38725 z" />
    <path
       id="path22"
       style="fill:#ffffff;stroke-width:0.242723"
       d="m 223.19154,54.107292 c -1.108,0 -1.99987,0.59002 -1.99987,1.322916 0,0.296038 0.15035,0.566053 0.39687,0.785999 v 14.295251 h 0.0351 a 16.073437,10.855107 0 0 0 0.11369,1.069186 16.073437,10.855107 0 0 0 17.01808,9.356535 16.073437,10.855107 0 0 0 14.64872,-8.744686 6.283854,7.4744792 0 0 0 2.14767,0.286287 6.283854,7.4744792 0 0 0 5.85649,-7.457426 l -0.23151,-2.010213 a 6.283854,7.4744792 0 0 0 -6.4766,-5.447213 6.283854,7.4744792 0 0 0 -0.85008,0.138493 6.283854,7.4744792 0 0 0 -0.11472,0.03824 v -1.524455 c 0.2467,-0.219992 0.39739,-0.489843 0.39739,-0.785999 0,-0.732896 -0.8924,-1.322916 -2.0004,-1.322916 z m 31.66112,6.141227 a 4.0215998,4.7836666 0 0 1 4.14548,3.486092 l 0.1478,1.286743 a 4.0215998,4.7836666 0 0 1 -3.74809,4.772835 4.0215998,4.7836666 0 0 1 -1.66243,-0.301273 V 60.53894 a 4.0215998,4.7836666 0 0 1 0.57361,-0.202054 4.0215998,4.7836666 0 0 1 0.54363,-0.08837 z" />
    <path
       style="fill:#333333;fill-opacity:1;stroke-width:0.264583"
       d="M 234.68541,45.376041 237.72812,29.36875"
       id="path24"
       inkscape:path-effect="#path-effect24"
       inkscape:original-d="m 234.68541,45.376041 c 1.01424,-5.335765 2.02848,-10.671527 3.04271,-16.007291" />
    <path
       style="fill:#fff1e0;fill-opacity:1;stroke-width:0.264583"
       d="m 231.90729,52.784374 c -0.89854,-0.07822 -1.7988,-0.193116 -2.66328,-0.450349 -0.86448,-0.257234 -1.69628,-0.66288 -2.3638,-1.269442 -0.61065,-0.554884 -1.07006,-1.267358 -1.36443,-2.038156 -0.29437,-0.770799 -0.42655,-1.59889 -0.43069,-2.423976 -0.008,-1.650173 0.48694,-3.263497 1.11246,-4.790541 0.62552,-1.527044 1.38575,-2.998634 1.94876,-4.549812 0.56302,-1.551178 0.927,-3.213701 0.71827,-4.85064 -0.16535,-1.296712 -0.68742,-2.532913 -1.40815,-3.623486 -0.72073,-1.090573 -1.63647,-2.041712 -2.62608,-2.895806 -1.97922,-1.708188 -4.25815,-3.0416 -6.2416,-4.744869 -0.99173,-0.851634 -1.91086,-1.799189 -2.637,-2.886169 -0.72613,-1.086981 -1.25574,-2.319575 -1.43074,-3.61502 -0.17501,-1.295444 0.0184,-2.655228 0.64825,-3.800684 0.62986,-1.1454565 1.71269,-2.0570595 2.9797,-2.3787574 1.0547,-0.2677928 2.18781,-0.1234972 3.1991,0.2782608 1.01129,0.401758 1.90968,1.0494348 2.71137,1.7852366 1.60338,1.471604 2.85413,3.307747 4.54057,4.683377 1.51462,1.235475 3.33385,2.056355 5.21073,2.602072 1.87688,0.545717 3.81938,0.826952 5.75837,1.073535 3.87797,0.493167 7.91917,0.902277 11.2559,2.938977 3.56258,2.174559 5.92179,6.106476 6.4447,10.247401 0.52291,4.140924 -0.71931,8.425318 -3.14503,11.821873 -2.42571,3.396555 -5.97886,5.919708 -9.89066,7.375213 -3.9118,1.455506 -8.16864,1.873734 -12.32672,1.511762 z"
       id="path25"
       inkscape:path-effect="#path-effect25"
       inkscape:original-d="m 231.90729,52.784374 c -6.3059,10.31875 -3.35139,-1.146527 -5.02708,-1.719791 -1.6757,-0.573265 1.36701,-12.435417 1.98437,-18.653125 0.61736,-6.217708 -7.18785,-15.963194 -10.71562,-23.9447914 -3.52778,-7.98159717 6.96736,4.4979164 10.45104,6.7468744 3.48368,2.248959 14.81666,4.409723 22.225,6.614584 7.40833,2.204861 -12.61181,20.637499 -18.91771,30.956249 z"
       transform="matrix(0.64868751,0,0,0.97032285,87.11627,-0.4142393)" />
    <path
       style="fill:#fff1e0;fill-opacity:1;stroke-width:0.264583"
       d="m 242.75521,13.49375 c -0.65338,-0.401529 -1.40036,-0.621266 -2.0898,-0.957131 -0.34472,-0.167933 -0.67735,-0.366674 -0.9627,-0.622819 -0.28534,-0.256144 -0.5227,-0.572485 -0.65167,-0.933592 -0.13852,-0.38785 -0.14733,-0.813302 -0.0803,-1.2196625 0.067,-0.4063605 0.207,-0.7969653 0.36071,-1.1790522 0.30742,-0.7641738 0.6797,-1.5407977 0.64567,-2.363785 -0.0216,-0.5228147 -0.21292,-1.0348037 -0.52572,-1.4542749 -0.31281,-0.4194712 -0.74439,-0.7465249 -1.22628,-0.9504615 -0.96377,-0.4078732 -2.09974,-0.3080749 -3.04215,0.1469929 -0.9424,0.4550677 -1.70044,1.2386033 -2.24712,2.1309875 -0.54668,0.8923842 -0.89455,1.892795 -1.16081,2.9048809 -0.66741,2.5369468 -0.83499,5.2641458 -0.0437,7.7652118 0.39567,1.250533 1.02996,2.431134 1.89829,3.414182 0.86833,0.983049 1.97371,1.764471 3.21024,2.201931 1.23653,0.437461 2.60356,0.523327 3.87199,0.18947 1.26844,-0.333856 2.42958,-1.094772 3.19793,-2.157795 0.76836,-1.063024 1.12746,-2.425735 0.92904,-3.722274 -0.19843,-1.296538 -0.96614,-2.506068 -2.08362,-3.192809 z"
       id="path26"
       inkscape:path-effect="#path-effect26"
       inkscape:original-d="m 242.75521,13.49375 c 3.66006,1.499305 -2.46945,-1.675695 -3.70417,-2.513542 -1.23472,-0.837847 0.61736,-3.1749998 0.92604,-4.7624997 0.30868,-1.5875 -5.46806,1.8520833 -8.20208,2.7781249 -2.73403,0.9260417 7.32014,2.9986108 10.98021,4.4979168 z"
       transform="matrix(0.45559396,-0.01477204,0.04135707,0.61894251,119.25104,28.423613)" />
  </g>
  <rect
     style="fill:#eddcb0;fill-opacity:1;stroke-width:0.264583"
     id="rect4"
     width="135.826"
     height="6.7351923"
     x="131.71042"
     y="84.189903"
     rx="5"
     ry="5" />
  <g
     inkscape:groupmode="layer"
     id="layer3"
     inkscape:label="Layer 1">
    <path
       id="path7"
       style="fill:#5e514c;fill-opacity:1;stroke-width:0.172141"
       d="m 9.341348,134.97987 v 1.61266 a 8.9867344,10.886285 0 0 0 -0.3606939,4.79243 8.9867344,10.886285 0 0 0 9.5150159,9.38356 8.9867344,10.886285 0 0 0 8.375323,-10.86107 l -0.330967,-2.92781 a 8.9867344,10.886285 0 0 0 -0.112774,-0.38552 v -1.61425 z" />
    <rect
       style="fill:#ffffff;fill-opacity:1;stroke-width:0.15946"
       id="rect7"
       width="19.082794"
       height="3.2085896"
       x="8.2319012"
       y="132.45879"
       rx="1.1860402"
       ry="1.2250071" />
    <path
       id="path8"
       style="fill:#ffffff;fill-opacity:1;stroke-width:0.278733"
       d="m 37.526457,128.67967 v 2.36961 a 16.035246,15.9961 0 0 0 -0.643593,7.04191 16.035246,15.9961 0 0 0 16.97787,13.78802 16.035246,15.9961 0 0 0 14.944289,-15.95905 l -0.590552,-4.30207 a 16.035246,15.9961 0 0 0 -0.201225,-0.56647 v -2.37195 z" />
    <path
       id="rect8"
       style="fill:#563d35;stroke-width:0.2582;fill-opacity:1"
       d="m 38.037472,116.36912 c -1.172419,0 -2.116667,0.80268 -2.116667,1.79989 v 1.11467 c 0,0.81372 0.628759,1.49759 1.497066,1.72185 v 11.82719 h 30.308228 v -11.74915 h 0.128674 c 1.172419,0 2.11615,-0.80269 2.11615,-1.79989 v -1.11467 c 0,-0.99721 -0.943731,-1.79989 -2.11615,-1.79989 z" />
    <g
       id="g17"
       inkscape:label="chair">
      <path
         id="path16"
         style="fill:#48332c;stroke-width:0.201717"
         d="m 252.19571,109.25988 v 4.49016 h 1.90324 l -9.25887,36.67167 3.25304,0.92501 9.49244,-37.59668 h 11.67112 l 9.49244,37.59668 3.25303,-0.92501 -9.25886,-36.67167 h 2.651 v -4.49016 z" />
      <rect
         style="fill:#d2a379;fill-opacity:1;stroke-width:0.264583"
         id="rect16"
         width="29.934"
         height="4.4901276"
         x="249.2021"
         y="105.51801"
         rx="2"
         ry="2" />
    </g>
    <path
       id="path21"
       style="fill:#ffffff;fill-opacity:1;stroke-width:0.213395"
       d="m 264.18646,80.583711 v 0.15525 a 25.818235,4.0187269 0 0 0 0.0429,-0.106626 z m 0,0.15525 a 25.818235,4.0187269 0 0 1 -0.0398,0.09933 h 0.0398 z m -0.0398,0.09933 h -51.47541 a 25.818235,4.0187269 0 0 0 0.16071,0.339327 25.818235,4.0187269 0 0 0 27.33528,3.464129 25.818235,4.0187269 0 0 0 23.97942,-3.803456 z" />
    <g
       id="g30"
       inkscape:label="chair"
       transform="translate(-57.15)">
      <path
         id="path30"
         style="fill:#48332c;stroke-width:0.201717"
         d="m 252.19571,109.25988 v 4.49016 h 1.90324 l -9.25887,36.67167 3.25304,0.92501 9.49244,-37.59668 h 11.67112 l 9.49244,37.59668 3.25303,-0.92501 -9.25886,-36.67167 h 2.651 v -4.49016 z" />
      <rect
         style="fill:#d2a379;fill-opacity:1;stroke-width:0.264583"
         id="rect30"
         width="29.934"
         height="4.4901276"
         x="249.2021"
         y="105.51801"
         rx="2"
         ry="2" />
    </g>
  </g>
  <rect
     style="fill:#403734;fill-opacity:1;stroke-width:0.128055"
     id="rect2"
     width="290.362"
     height="17.889698"
     x="0.24087192"
     y="149.84268"
     inkscape:label="floor" />
</svg>
